<svg   viewBox="0 0 24 24" fill="none" xmlns="http://www.w3.org/2000/svg">
<path d="M23.615 15.477C23.145 15.007 22.385 15.007 21.918 15.477L20.592 16.803V7.40001C20.592 5.22201 18.82 3.45001 16.642 3.45001H11.442C10.779 3.45001 10.242 3.98801 10.242 4.65001C10.242 5.31201 10.779 5.85001 11.442 5.85001H16.642C17.496 5.85001 18.192 6.54501 18.192 7.40001V16.803L16.866 15.477C16.396 15.007 15.636 15.007 15.169 15.477C14.702 15.947 14.699 16.707 15.169 17.174L18.543 20.549C18.777 20.782 19.085 20.899 19.393 20.899C19.701 20.899 20.006 20.783 20.241 20.549L23.616 17.173C24.083 16.703 24.083 15.943 23.614 15.476L23.615 15.477ZM12.562 18.5H7.36201C6.50801 18.5 5.81201 17.805 5.81201 16.95V7.54701L7.13801 8.87301C7.37201 9.10801 7.68001 9.22501 7.98601 9.22501C8.29201 9.22501 8.60001 9.10801 8.83601 8.87301C9.30401 8.40301 9.30401 7.64301 8.83601 7.17601L5.46001 3.80001C4.99001 3.33201 4.23001 3.33201 3.76301 3.80001L0.388007 7.17701C-0.0819928 7.64701 -0.0819928 8.407 0.388007 8.874C0.858007 9.341 1.61801 9.344 2.08501 8.874L3.41001 7.54701V16.95C3.41001 19.128 5.18301 20.9 7.36001 20.9H12.56C13.224 20.9 13.76 20.362 13.76 19.7C13.76 19.038 13.225 18.5 12.562 18.5Z" fill="black"/>
</svg>
