<svg width="24" height="24" viewBox="0 0 24 24" fill="none" xmlns="http://www.w3.org/2000/svg">
<path d="M23.77 15.67C23.478 15.377 23.003 15.377 22.71 15.67L20.49 17.89V7.65001C20.49 5.58201 18.807 3.90001 16.74 3.90001H10.89C10.476 3.90001 10.14 4.23601 10.14 4.65001C10.14 5.06401 10.476 5.40001 10.89 5.40001H16.74C17.98 5.40001 18.99 6.41001 18.99 7.65001V17.89L16.77 15.67C16.477 15.377 16.002 15.377 15.71 15.67C15.418 15.963 15.416 16.438 15.71 16.73L19.21 20.23C19.355 20.377 19.547 20.45 19.74 20.45C19.933 20.45 20.123 20.378 20.27 20.23L23.77 16.73C24.064 16.438 24.064 15.963 23.77 15.67V15.67ZM13.11 18.95H7.26C6.02 18.95 5.01 17.94 5.01 16.7V6.46001L7.23 8.68001C7.378 8.82701 7.57 8.90001 7.762 8.90001C7.954 8.90001 8.146 8.82701 8.292 8.68001C8.585 8.38701 8.585 7.91201 8.292 7.62001L4.792 4.12001C4.499 3.82601 4.024 3.82601 3.732 4.12001L0.231997 7.62001C-0.0620025 7.91201 -0.0620025 8.38701 0.231997 8.68001C0.525997 8.97301 0.998998 8.97301 1.292 8.68001L3.512 6.46001V16.7C3.512 18.768 5.195 20.45 7.262 20.45H13.112C13.526 20.45 13.862 20.114 13.862 19.7C13.862 19.286 13.525 18.95 13.112 18.95H13.11Z" fill="black"/>
</svg>
