<svg   viewBox="0 0 24 24" fill="none" xmlns="http://www.w3.org/2000/svg">
<g clip-path="url(#clip0)">
<path d="M-37.9 18C-38 17.9 -38 17.9 -38 17.8C-37.9 17.8 -37.9 17.9 -37.9 18ZM18 2.20001H16.7V1.90001C16.7 1.50001 16.4 1.10001 15.9 1.10001C15.5 1.10001 15.1 1.40001 15.1 1.90001V2.20001H7.7V1.90001C7.7 1.50001 7.4 1.10001 6.9 1.10001C6.5 1.10001 6.1 1.40001 6.1 1.90001V2.20001H4.8C3.4 2.20001 2.3 3.30001 2.3 4.70001V17.8C2.3 19.2 3.4 20.3 4.8 20.3H7.7C8.1 20.3 8.5 20 8.5 19.5C8.5 19.1 8.2 18.7 7.7 18.7H4.8C4.2 18.7 3.8 18.2 3.8 17.7V7.90001C3.8 7.60001 4.2 7.20001 4.8 7.20001H18C18.6 7.20001 19 7.60001 19 7.90001V9.70001C19 10.1 19.3 10.5 19.8 10.5C20.2 10.5 20.6 10.2 20.6 9.70001V4.70001C20.5 3.30001 19.4 2.20001 18 2.20001V2.20001ZM19 5.90001C18.7 5.80001 18.3 5.70001 18 5.70001H4.8C4.4 5.70001 4.1 5.80001 3.8 5.90001V4.70001C3.8 4.10001 4.3 3.70001 4.8 3.70001H6.1V4.20001C6.1 4.60001 6.4 5.00001 6.9 5.00001C7.3 5.00001 7.7 4.70001 7.7 4.20001V3.70001H15.2V4.20001C15.2 4.60001 15.5 5.00001 16 5.00001C16.4 5.00001 16.8 4.70001 16.8 4.20001V3.70001H18C18.6 3.70001 19 4.20001 19 4.70001V5.90001Z" fill="black"/>
<path d="M15.5 10.4C12.1 10.4 9.3 13.2 9.3 16.6C9.3 20 12.1 22.8 15.5 22.8C18.9 22.8 21.7 20 21.7 16.6C21.7 13.2 18.9 10.4 15.5 10.4V10.4ZM15.5 21.4C12.9 21.4 10.8 19.3 10.8 16.7C10.8 14.1 12.9 12 15.5 12C18.1 12 20.2 14.1 20.2 16.7C20.2 19.2 18.1 21.4 15.5 21.4Z" fill="black"/>
<path d="M18.9 18.7C18.8 18.9 18.5 19.1 18.3 19.1C18.2 19.1 18 19.1 17.9 19L14.8 17V14C14.8 13.6 15.1 13.2 15.6 13.2C16 13.2 16.4 13.5 16.4 14V16.2L18.8 17.7C19 17.9 19.1 18.3 18.9 18.7V18.7Z" fill="black"/>
</g>
<defs>
<clipPath id="clip0">
<rect   fill="white"/>
</clipPath>
</defs>
</svg>
