<svg   viewBox="0 0 24 24" fill="none" xmlns="http://www.w3.org/2000/svg">
<path d="M20.585 9.46801C21.245 9.46801 21.785 8.93001 21.785 8.26801C21.785 7.60601 21.245 7.06801 20.585 7.06801H17.365L17.675 3.52101C17.702 3.20301 17.605 2.89101 17.398 2.64601C17.192 2.40101 16.903 2.25001 16.576 2.22101C15.926 2.18601 15.341 2.65301 15.283 3.31401L14.957 7.06801H9.9L10.208 3.52301C10.268 2.86501 9.778 2.28101 9.111 2.22101C8.446 2.17101 7.876 2.65101 7.818 3.31301L7.493 7.06701H4.163C3.5 7.06701 2.963 7.60501 2.963 8.26701C2.963 8.92901 3.501 9.46701 4.163 9.46701H7.285L6.845 14.531H3.416C2.754 14.531 2.216 15.071 2.216 15.731C2.216 16.391 2.754 16.933 3.416 16.933H6.636L6.326 20.481C6.269 21.138 6.758 21.721 7.416 21.781L7.522 21.786C8.148 21.786 8.662 21.314 8.717 20.688L9.044 16.935H14.1L13.792 20.479C13.732 21.137 14.222 21.721 14.882 21.781L14.988 21.786C15.605 21.786 16.13 21.304 16.183 20.688L16.508 16.935H19.838C20.498 16.935 21.038 16.395 21.038 15.735C21.038 15.075 20.498 14.533 19.838 14.533H16.716L17.156 9.46901H20.586L20.585 9.46801ZM14.747 9.46801L14.307 14.531H9.253L9.693 9.46901H14.748L14.747 9.46801Z" fill="black"/>
</svg>
