<svg   viewBox="0 0 24 24" fill="none" xmlns="http://www.w3.org/2000/svg">
<path d="M21.697 16.468C21.677 16.452 19.557 14.828 19.594 10.438C19.614 7.90501 18.782 5.65601 17.247 4.10401C15.872 2.71101 14.01 1.94001 12.005 1.93201H11.992C9.98801 1.94001 8.12601 2.71201 6.75001 4.10401C5.21601 5.65701 4.38301 7.90601 4.40401 10.437C4.44101 14.769 2.38401 16.404 2.30201 16.467C2.04201 16.661 1.93601 16.997 2.03701 17.305C2.13801 17.613 2.42701 17.82 2.75001 17.82H7.24401C7.34401 20.364 9.43201 22.407 12 22.407C14.568 22.407 16.655 20.364 16.756 17.82H21.25C21.574 17.82 21.86 17.612 21.962 17.305C22.064 16.998 21.957 16.661 21.697 16.468V16.468ZM12 20.408C10.534 20.408 9.34301 19.261 9.24401 17.82H14.756C14.656 19.26 13.466 20.407 12 20.407V20.408Z" fill="black"/>
</svg>
