<svg   viewBox="0 0 24 24" fill="none" xmlns="http://www.w3.org/2000/svg">
<path d="M23.643 4.93701C22.808 5.30701 21.911 5.55701 20.968 5.67001C21.93 5.09401 22.668 4.18001 23.016 3.09201C22.116 3.62601 21.119 4.01401 20.058 4.22201C19.208 3.31801 17.998 2.75201 16.658 2.75201C14.086 2.75201 12 4.83801 12 7.41201C12 7.77601 12.042 8.13001 12.12 8.47201C8.247 8.27701 4.816 6.42201 2.518 3.60401C2.118 4.29401 1.888 5.09401 1.888 5.94601C1.888 7.56201 2.711 8.98901 3.96 9.82401C3.196 9.79901 2.478 9.59001 1.85 9.24101V9.30101C1.85 11.558 3.455 13.441 5.587 13.869C5.195 13.975 4.784 14.031 4.36 14.031C4.06 14.031 3.767 14.003 3.483 13.949C4.076 15.799 5.796 17.147 7.835 17.183C6.24 18.433 4.231 19.178 2.049 19.178C1.673 19.178 1.302 19.156 0.936996 19.113C2.999 20.436 5.447 21.206 8.077 21.206C16.647 21.206 21.332 14.108 21.332 7.95201C21.332 7.75201 21.327 7.55001 21.318 7.35001C22.228 6.69201 23.018 5.87301 23.641 4.94001L23.643 4.93701Z" fill="black"/>
</svg>
